<svg width="32" height="32" viewBox="0 0 32 32" fill="none" xmlns="http://www.w3.org/2000/svg">
<g id="Layer 1">
<g id="Group">
<path id="Vector" d="M16.0002 13C15.5702 13 15.1702 12.78 14.9502 12.42L11.8602 7.49C10.9002 5.96 10.8502 4.1 11.7302 2.52C12.6102 0.94 14.2102 0 16.0102 0C17.8102 0 19.4202 0.94 20.2902 2.52C21.1602 4.1 21.1102 5.96 20.1602 7.49L17.0702 12.42C16.8402 12.78 16.4502 13 16.0102 13H16.0002ZM16.0002 1.21C14.6402 1.21 13.4402 1.92 12.7802 3.11C12.1202 4.3 12.1602 5.69 12.8802 6.84L15.9702 11.77L19.1002 6.84C19.8202 5.69 19.8602 4.3 19.2002 3.11C18.5402 1.92 17.3402 1.21 15.9802 1.21H16.0002ZM16.0002 7.54C14.5002 7.54 13.2802 6.32 13.2802 4.82C13.2802 3.32 14.5002 2.1 16.0002 2.1C17.5002 2.1 18.7202 3.32 18.7202 4.82C18.7202 6.32 17.5002 7.54 16.0002 7.54ZM16.0002 3.32C15.1702 3.32 14.5002 3.99 14.5002 4.82C14.5002 5.65 15.1702 6.32 16.0002 6.32C16.8302 6.32 17.5002 5.65 17.5002 4.82C17.5002 3.99 16.8302 3.32 16.0002 3.32Z" fill="black"/>
<path id="Vector_2" d="M0.59 31.9998C0.26 31.9998 0 31.7298 0 31.4098C0 31.0898 0.27 30.8198 0.59 30.8198H3.17L3.15 18.7698C3.15 17.8098 3.93 17.0298 4.89 17.0298H9.59L9.57 15.3298C9.57 14.3698 10.35 13.5898 11.31 13.5898H21.66C22.62 13.5898 23.4 14.3698 23.4 15.3298V17.0498L27.09 17.0298C28.05 17.0298 28.83 17.8098 28.83 18.7698V30.8398L31.39 30.8198C31.72 30.8198 31.98 31.0898 31.98 31.4098C31.98 31.7298 31.71 31.9998 31.39 31.9998H0.59ZM23.41 30.8298L27.68 30.8098L27.66 18.7598C27.66 18.4498 27.42 18.2098 27.1 18.2098H23.41V30.8398V30.8298ZM20.52 27.3598C20.85 27.3598 21.11 27.6298 21.11 27.9498V30.8198L22.24 30.7998L22.22 15.2998C22.22 14.9898 21.98 14.7398 21.66 14.7398H11.31C11 14.7398 10.75 14.9798 10.75 15.2998V30.8198L11.88 30.7998L11.86 27.9498C11.86 27.6198 12.13 27.3598 12.45 27.3598C12.77 27.3598 13.04 27.6298 13.04 27.9498V30.8198L14.17 30.7998L14.15 26.7898C14.15 26.4598 14.42 26.1998 14.74 26.1998H18.19C18.52 26.1998 18.78 26.4698 18.78 26.7898V30.8098L19.91 30.7898L19.89 27.9398C19.89 27.6098 20.16 27.3498 20.48 27.3498L20.52 27.3598ZM15.36 30.8298L17.64 30.8098L17.62 27.3798L15.36 27.3998V30.8298ZM4.89 18.1998C4.58 18.1998 4.33 18.4398 4.33 18.7498V30.8198L9.59 30.7998L9.57 18.1698L4.89 18.1898V18.1998Z" fill="black"/>
<path id="Vector_3" d="M13.05 25.1001C12.72 25.1001 12.46 24.8301 12.46 24.5101V22.2101C12.46 21.8801 12.73 21.6201 13.05 21.6201H15.35C15.68 21.6201 15.94 21.8901 15.94 22.2101V24.5101C15.94 24.8401 15.67 25.1001 15.35 25.1001H13.05ZM13.64 23.9301L14.77 23.9101L14.75 22.7801L13.64 22.8001V23.9301Z" fill="black"/>
<path id="Vector_4" d="M17.6501 25.1001C17.3201 25.1001 17.0601 24.8301 17.0601 24.5101V22.2101C17.0601 21.8801 17.3301 21.6201 17.6501 21.6201H19.9501C20.2801 21.6201 20.5401 21.8901 20.5401 22.2101V24.5101C20.5401 24.8401 20.2701 25.1001 19.9501 25.1001H17.6501ZM18.2401 23.9301L19.3701 23.9101L19.3501 22.7801L18.2401 22.8001V23.9301Z" fill="black"/>
<path id="Vector_5" d="M13.05 20.4995C12.72 20.4995 12.46 20.2295 12.46 19.9095V17.6095C12.46 17.2795 12.73 17.0195 13.05 17.0195H15.35C15.68 17.0195 15.94 17.2895 15.94 17.6095V19.9095C15.94 20.2395 15.67 20.4995 15.35 20.4995H13.05ZM13.64 19.3295L14.77 19.3095L14.75 18.1795L13.64 18.1995V19.3295Z" fill="black"/>
<path id="Vector_6" d="M17.6501 20.4995C17.3201 20.4995 17.0601 20.2295 17.0601 19.9095V17.6095C17.0601 17.2795 17.3301 17.0195 17.6501 17.0195H19.9501C20.2801 17.0195 20.5401 17.2895 20.5401 17.6095V19.9095C20.5401 20.2395 20.2701 20.4995 19.9501 20.4995H17.6501ZM18.2401 19.3295L19.3701 19.3095L19.3501 18.1795L18.2401 18.1995V19.3295Z" fill="black"/>
</g>
</g>
</svg>
