<svg width="129" height="24" viewBox="0 0 129 24" fill="none" xmlns="http://www.w3.org/2000/svg">
<path fill-rule="evenodd" clip-rule="evenodd" d="M106.587 11.2518L115.6 22.2335C116.466 23.2911 117.771 24 119.234 24H128.494L110.57 2.16034C109.479 0.843882 108.387 0 106.587 0C104.787 0 103.673 0.855134 102.592 2.16034L84.6797 24H93.9399C95.3801 24 96.6628 23.2911 97.5517 22.2335L106.587 11.2518Z" fill="white"/>
<path fill-rule="evenodd" clip-rule="evenodd" d="M76.7822 12.7482L67.747 1.75527C66.8806 0.708861 65.5867 0 64.1464 0H54.875L72.799 21.8284C73.868 23.1449 74.9706 23.9887 76.7709 23.9887C78.5712 23.9887 79.6739 23.1449 80.754 21.8284L98.6781 0H89.4179C87.9664 0 86.6837 0.708861 85.7948 1.75527L76.7709 12.7482H76.7822Z" fill="white"/>
<path d="M9.37271 0H0V17.9916C0 21.3108 2.62166 24 5.87342 24H18.8129C20.2757 24 21.5584 23.2911 22.4473 22.2335L27.9044 15.5949H9.37271V0Z" fill="white"/>
<path fill-rule="evenodd" clip-rule="evenodd" d="M46.9423 11.2518L55.955 22.2335C56.8214 23.2911 58.1266 24 59.5781 24H68.8383L50.9254 2.16034C49.834 0.843882 48.7426 0 46.9423 0C45.142 0 44.0281 0.855134 42.9592 2.16034L25.0352 24H34.2954C35.7356 24 37.0183 23.2911 37.9072 22.2335L46.9423 11.2518Z" fill="white"/>
</svg>
